<?xml version="1.0" encoding="UTF-8"?> <svg xmlns="http://www.w3.org/2000/svg" xmlns:xlink="http://www.w3.org/1999/xlink" width="167px" height="40px" viewBox="0 0 167 40" version="1.1"><title>logo-mobiry</title><defs><path d="M12,0 L28,0 C34.627417,0 40,5.372583 40,12 L40,28 C40,34.627417 34.627417,40 28,40 L12,40 C5.372583,40 0,34.627417 0,28 L0,12 C0,5.372583 5.372583,0 12,0 Z" id="path-1"></path></defs><g id="01-home" stroke="none" stroke-width="1" fill="none" fill-rule="evenodd"><g id="02A-h" transform="translate(-156.000000, -28.000000)"><g id="logo-mobiry" transform="translate(156.000000, 28.000000)"><g id="sign"><mask id="mask-2" fill="white"><use xlink:href="#path-1"></use></mask><g id="bg"></g><path d="M28,0 C34.627417,0 40,5.372583 40,12 L40,28 C40,34.627417 34.627417,40 28,40 L15.964,40 L25.5,40 L30.6197475,28.8743948 C30.76952,28.5489276 30.7724379,28.1748398 30.6277605,27.8470758 C30.3489831,27.2155107 29.6110047,26.9295198 28.9794396,27.2082972 L22.6613526,29.9971464 C22.3425143,30.137884 21.979397,30.1391201 21.6596079,30.0005567 C21.0261594,29.7260858 20.7351505,28.9900717 21.0096214,28.3566231 L26.9553992,14.6344243 C27.0933863,14.3159653 27.0927582,13.9544724 26.9536654,13.6364948 C26.6769951,13.0040038 25.9399742,12.7155542 25.3074832,12.9922245 L11.9169955,18.8496213 C11.593268,18.9912293 11.2247305,18.9892114 10.9025731,18.844067 C10.2731496,18.5604873 9.99278789,17.820352 10.2763676,17.1909285 L13.0350856,11.0677762 C13.180811,10.7443293 13.1822366,10.3741968 13.0390069,10.049637 C12.7602839,9.41804793 12.0223301,9.13199344 11.390741,9.41071646 L0,14.4375 L0,12 C0,5.372583 5.372583,0 12,0 L28,0 Z" id="Combined-Shape" fill="#FF6C2E" mask="url(#mask-2)"></path><g id="2" mask="url(#mask-2)" fill="#292D33"><g transform="translate(0.000000, 21.350510)" id="Combined-Shape"><path d="M18.4749024,11.9044116 C18.6136395,12.2204519 18.6155255,12.5797919 18.4801133,12.897271 L16,18.7119904 L0,18.6494904 L16.8278806,11.2622908 C17.4600099,10.9847951 18.1974066,11.2722824 18.4749024,11.9044116 Z M7.61092487,0.749712772 C7.75235848,1.07331287 7.75030729,1.44164026 7.60527835,1.76364507 L0,18.6494904 L0,2.71199037 L5.96494112,0.104935683 C6.59751726,-0.171539902 7.33444929,0.117136634 7.61092487,0.749712772 Z"></path></g></g></g><g id="MOBIRY" transform="translate(56.000000, 10.000000)" fill="#272C33" fill-rule="nonzero"><path d="M21.6987484,18.6656635 L21.6494276,1.3286469 C21.6478596,0.777475024 21.2006058,0.331491713 20.6494317,0.331491713 L18.5592081,0.331491713 C18.2054558,0.331491713 17.8780269,0.518390944 17.6981447,0.822994094 L11.7465115,10.90118 C11.465676,11.3767322 10.8525027,11.5345812 10.3769505,11.2537458 C10.2335166,11.1690414 10.1135145,11.049848 10.0278424,10.9069901 L3.97696709,0.817183987 C3.79626969,0.515871925 3.47070239,0.331491713 3.11936138,0.331491713 L1,0.331491713 C0.44771525,0.331491713 -6.76353751e-17,0.779206963 0,1.33149171 L0,18.6685083 C6.76353751e-17,19.220793 0.44771525,19.6685083 1,19.6685083 L3.18079011,19.6685083 C3.73307486,19.6685083 4.18079011,19.220793 4.18079011,18.6685083 L4.18079011,11.8961902 C4.18079011,11.3439054 4.62850536,10.8961902 5.18079011,10.8961902 C5.53056684,10.8961902 5.85492221,11.078945 6.03613005,11.378123 L9.52745589,17.1423765 C9.70866372,17.4415546 10.0330191,17.6243094 10.3827958,17.6243094 L11.257537,17.6243094 C11.6106914,17.6243094 11.9376595,17.4380363 12.117747,17.1342493 L15.6417067,11.1897338 C15.9233387,10.7146529 16.5367757,10.5578316 17.0118566,10.8394636 C17.3149163,11.01912 17.5010787,11.344995 17.5019139,11.697303 L17.5184461,18.670879 C17.5197532,19.2222366 17.9670841,19.6685083 18.5184433,19.6685083 L20.6987524,19.6685083 C21.2510372,19.6685083 21.6987524,19.220793 21.6987524,18.6685083 C21.6987524,18.66756 21.6987511,18.6666117 21.6987484,18.6656635 Z" id="Path"></path><path d="M33.9559907,20 C40.0071342,20 44.4904815,15.7734807 44.4904815,10 C44.4904815,4.22651934 40.0071342,0 33.9559907,0 C27.8773419,0 23.4214998,4.25414365 23.4214998,10 C23.4214998,15.7458564 27.8773419,20 33.9559907,20 Z M33.9559907,16.1878453 C30.5178409,16.1878453 27.9323523,13.6740331 27.9323523,10 C27.9323523,6.32596685 30.5178409,3.8121547 33.9559907,3.8121547 C37.3941404,3.8121547 39.979629,6.32596685 39.979629,10 C39.979629,13.6740331 37.3941404,16.1878453 33.9559907,16.1878453 Z" id="Shape"></path><path d="M60.3480519,9.61325967 C61.9158481,8.78453039 62.9060353,7.29281768 62.9060353,5.35911602 C62.9060353,2.3480663 60.4305674,0.331491713 55.6171578,0.331491713 L47.21038,0.331491713 C46.6580953,0.331491713 46.21038,0.779206963 46.21038,1.33149171 L46.21038,18.6685083 C46.21038,19.220793 46.6580953,19.6685083 47.21038,19.6685083 L56.1672617,19.6685083 L56.1672617,19.6685083 C61.2282182,19.6685083 63.8687172,17.7348066 63.8687172,14.3922652 C63.8687172,11.961326 62.4934573,10.3038674 60.3480519,9.61325967 Z M55.0670538,3.70165746 C57.2399645,3.70165746 58.422688,4.44751381 58.422688,5.96685083 C58.422688,7.48618785 57.2399645,8.25966851 55.0670538,8.25966851 L50.6387169,8.25966851 L50.6387169,3.70165746 L55.0670538,3.70165746 Z M55.8371994,16.2983425 L50.6387169,16.2983425 L50.6387169,11.519337 L55.8371994,11.519337 C58.147636,11.519337 59.3853699,12.2928177 59.3853699,13.9226519 C59.3853699,15.5801105 58.147636,16.2983425 55.8371994,16.2983425 Z" id="Shape"></path><path d="M67.5228857,19.6685083 L69.9787278,19.6685083 C70.5310125,19.6685083 70.9787278,19.220793 70.9787278,18.6685083 L70.9787278,1.33149171 C70.9787278,0.779206963 70.5310125,0.331491713 69.9787278,0.331491713 L67.5228857,0.331491713 C66.970601,0.331491713 66.5228857,0.779206963 66.5228857,1.33149171 L66.5228857,18.6685083 C66.5228857,19.220793 66.970601,19.6685083 67.5228857,19.6685083 Z" id="Path"></path><path d="M90.9021162,18.0979326 L87.6749875,13.4530387 L87.6749875,13.4530387 C90.1779606,12.3756906 91.635736,10.2486188 91.635736,7.3480663 C91.635736,3.01104972 88.4176279,0.331491713 83.2741558,0.331491713 L75.9400808,0.331491713 C75.3877961,0.331491713 74.9400808,0.779206963 74.9400808,1.33149171 L74.9400808,18.6685083 C74.9400808,19.220793 75.3877961,19.6685083 75.9400808,19.6685083 L78.3959229,19.6685083 C78.9482077,19.6685083 79.3959229,19.220793 79.3959229,18.6685083 L79.3959229,14.281768 L79.3959229,14.281768 L83.2741558,14.281768 L83.4941974,14.281768 L86.9092998,19.2360557 C87.0959431,19.506819 87.4037811,19.6685083 87.7326405,19.6685083 L90.0808712,19.6685083 C90.6331559,19.6685083 91.0808712,19.220793 91.0808712,18.6685083 C91.0808712,18.4645369 91.0184973,18.2654431 90.9021162,18.0979326 Z M87.1248836,7.3480663 C87.1248836,9.44751381 85.7496237,10.718232 83.0266091,10.718232 L79.3959229,10.718232 L79.3959229,3.97790055 L83.0266091,3.97790055 C85.7496237,3.97790055 87.1248836,5.22099448 87.1248836,7.3480663 Z" id="Shape"></path><path d="M109.235059,0.331491713 L107.193499,0.331491713 C106.841893,0.331491713 106.516121,0.516147435 106.335512,0.817820411 L102.341189,7.489553 C102.057496,7.96340617 101.443383,8.11756158 100.96953,7.83386876 C100.828141,7.74922016 100.709863,7.63094187 100.625214,7.489553 L96.6308913,0.817820411 C96.4502816,0.516147435 96.1245097,0.331491713 95.7729042,0.331491713 L93.3744587,0.331491713 C92.8221739,0.331491713 92.3744587,0.779206963 92.3744587,1.33149171 C92.3744587,1.51264217 92.4236657,1.69039042 92.5168241,1.84575131 L98.9203786,12.5250071 C99.013537,12.680368 99.062744,12.8581162 99.062744,13.0392667 L99.062744,18.6685083 C99.062744,19.220793 99.5104593,19.6685083 100.062744,19.6685083 L102.518586,19.6685083 C103.070871,19.6685083 103.518586,19.220793 103.518586,18.6685083 L103.518586,13.0943369 C103.518586,12.9132989 103.567732,12.7356568 103.660781,12.5803615 L110.092864,1.84546713 C110.376724,1.37171456 110.222787,0.757547582 109.749034,0.473686798 C109.593739,0.380637728 109.416097,0.331491713 109.235059,0.331491713 Z" id="Path"></path></g></g></g></g></svg> 